<svg xmlns="http://www.w3.org/2000/svg" xmlns:xlink="http://www.w3.org/1999/xlink" width="24" height="24" preserveAspectRatio="xMidYMid meet" viewBox="0 0 24 24" style="-ms-transform: rotate(360deg); -webkit-transform: rotate(360deg); transform: rotate(360deg);"><path d="M12 13.5a2.5 2.5 0 1 0 0-5a2.5 2.5 0 0 0 0 5z" fill="#626262"/><path fill-rule="evenodd" d="M19.071 3.429C15.166-.476 8.834-.476 4.93 3.429c-3.905 3.905-3.905 10.237 0 14.142l.028.028l5.375 5.375a2.359 2.359 0 0 0 3.336 0l5.403-5.403c3.905-3.905 3.905-10.237 0-14.142zM5.99 4.489A8.5 8.5 0 0 1 18.01 16.51l-5.403 5.404a.859.859 0 0 1-1.214 0l-5.378-5.378l-.002-.002l-.023-.024a8.5 8.5 0 0 1 0-12.02z" fill="#626262" stroke="#626262"/><rect x="0" y="0" width="24" height="24" fill="rgba(0, 0, 0, 0)" /></svg>
