<svg xmlns="http://www.w3.org/2000/svg" xmlns:xlink="http://www.w3.org/1999/xlink" width="24" height="24" preserveAspectRatio="xMidYMid meet" viewBox="0 0 24 24" style="-ms-transform: rotate(360deg); -webkit-transform: rotate(360deg); transform: rotate(360deg);"><path fill-rule="evenodd" d="M12.672.668a.75.75 0 0 0-1.345 0L8.27 6.865l-6.838.994a.75.75 0 0 0-.416 1.279l4.948 4.823l-1.168 6.811a.75.75 0 0 0 1.088.791L12 18.347l6.117 3.216a.75.75 0 0 0 1.088-.79l-1.168-6.812l4.948-4.823a.75.75 0 0 0-.416-1.28l-6.838-.993L12.672.668z" fill="#626262" /><rect x="0" y="0" width="24" height="24" fill="rgba(0, 0, 0, 0)" /></svg>
